<?xml version="1.0" encoding="UTF-8"?>
<!DOCTYPE svg PUBLIC "-//W3C//DTD SVG 1.1//EN" "http://www.w3.org/Graphics/SVG/1.1/DTD/svg11.dtd">
<svg xmlns="http://www.w3.org/2000/svg" version="1.1" width="795px" height="204px" style="shape-rendering:geometricPrecision; text-rendering:geometricPrecision; image-rendering:optimizeQuality; fill-rule:evenodd; clip-rule:evenodd" xmlns:xlink="http://www.w3.org/1999/xlink">
<g><path style="opacity:0.989" fill="#353537" d="M 96.5,59.5 C 69.8121,58.8423 43.4788,59.5089 17.5,61.5C 13.7798,64.4511 10.6131,63.7845 8,59.5C 7.04993,54.9244 8.88326,51.9244 13.5,50.5C 15.0016,51.0831 16.3349,51.9164 17.5,53C 25.8533,53.8317 34.1866,53.6651 42.5,52.5C 48.3123,39.7489 56.479,38.0822 67,47.5C 69.5,43.6667 72.6667,40.5 76.5,38C 72.0544,33.2737 70.2211,27.7737 71,21.5C 75.5612,17.1338 80.7279,13.6338 86.5,11C 89.3033,10.245 91.9699,10.5783 94.5,12C 97.5421,15.2689 100.209,18.7689 102.5,22.5C 106.409,21.085 110.409,20.085 114.5,19.5C 111.728,6.62491 116.728,0.624912 129.5,1.5C 142.272,0.624912 147.272,6.62491 144.5,19.5C 148.591,20.085 152.591,21.085 156.5,22.5C 158.791,18.7689 161.458,15.2689 164.5,12C 166.034,11.077 167.701,10.577 169.5,10.5C 176.526,12.6873 182.693,16.354 188,21.5C 188.779,27.7737 186.946,33.2737 182.5,38C 186.333,40.5 189.5,43.6667 192,47.5C 196.726,43.0544 202.226,41.2211 208.5,42C 212.866,46.5612 216.366,51.7279 219,57.5C 219.755,60.3033 219.422,62.9699 218,65.5C 214.731,68.5421 211.231,71.2087 207.5,73.5C 208.915,77.4088 209.915,81.4088 210.5,85.5C 214.846,85.3343 219.179,85.501 223.5,86C 227.19,88.1693 228.857,91.336 228.5,95.5C 234.509,95.6662 240.509,95.4995 246.5,95C 251.891,90.96 255.557,92.2933 257.5,99C 256.591,102.381 254.424,104.547 251,105.5C 249.745,104.789 248.579,103.956 247.5,103C 225.833,102.667 204.167,102.333 182.5,102C 180.024,69.0246 162.358,51.1912 129.5,48.5C 117.27,48.6371 106.27,52.3037 96.5,59.5 Z"/></g>
<g><path style="opacity:0.032" fill="#09090a" d="M 121.5,58.5 C 122.036,61.6981 121.369,64.3647 119.5,66.5C 120.078,63.7196 120.745,61.0529 121.5,58.5 Z"/></g>
<g><path style="opacity:0.032" fill="#090909" d="M 137.5,58.5 C 138.255,61.0529 138.922,63.7196 139.5,66.5C 137.631,64.3647 136.964,61.6981 137.5,58.5 Z"/></g>
<g><path style="opacity:0.062" fill="#040405" d="M 96.5,59.5 C 70.2645,60.1752 43.9311,60.8418 17.5,61.5C 43.4788,59.5089 69.8121,58.8423 96.5,59.5 Z"/></g>
<g><path style="opacity:0.995" fill="#636467" d="M 137.5,58.5 C 136.964,61.6981 137.631,64.3647 139.5,66.5C 142.354,66.9239 145.021,67.9239 147.5,69.5C 150.167,67.8333 152.833,66.1667 155.5,64.5C 160.041,66.8734 163.374,70.3734 165.5,75C 164.245,77.9223 162.578,80.589 160.5,83C 162.11,85.3114 163.443,87.8114 164.5,90.5C 167.37,91.2568 170.036,92.2568 172.5,93.5C 172.5,98.1667 172.5,102.833 172.5,107.5C 168.812,107.781 165.145,108.281 161.5,109C 161.58,112.041 161.247,115.207 160.5,118.5C 161.748,120.649 163.248,122.649 165,124.5C 165.667,125.833 165.667,127.167 165,128.5C 161.985,131.683 158.818,134.683 155.5,137.5C 152.923,136.057 150.59,134.39 148.5,132.5C 147.432,131.566 146.099,131.232 144.5,131.5C 144.307,127.434 144.64,123.434 145.5,119.5C 156.116,107.098 156.116,94.5979 145.5,82C 134.833,74.6667 124.167,74.6667 113.5,82C 105.755,90.1523 103.588,99.6523 107,110.5C 109.216,114.725 112.216,118.392 116,121.5C 116.667,125.167 116.667,128.833 116,132.5C 114.542,133.747 113.042,133.747 111.5,132.5C 108.632,134.601 105.632,136.101 102.5,137C 99.6667,134.167 96.8333,131.333 94,128.5C 93.9973,124.775 95.4973,121.609 98.5,119C 97.944,118.617 97.6107,118.117 97.5,117.5C 97.8273,114.518 97.8273,111.685 97.5,109C 93.8484,108.501 90.1817,108.335 86.5,108.5C 85.8826,108.389 85.3826,108.056 85,107.5C 84.3333,103.167 84.3333,98.8333 85,94.5C 86.1096,92.9632 87.6096,92.2965 89.5,92.5C 91.5,92.5 93.5,92.5 95.5,92.5C 95.5,91.5 95.5,90.5 95.5,89.5C 95.8288,87.0092 96.8288,84.8425 98.5,83C 96.422,80.589 94.7553,77.9223 93.5,75C 95.626,70.3734 98.9593,66.8734 103.5,64.5C 106.167,66.1667 108.833,67.8333 111.5,69.5C 113.979,67.9239 116.646,66.9239 119.5,66.5C 121.369,64.3647 122.036,61.6981 121.5,58.5C 121.953,57.5416 122.619,56.7083 123.5,56C 127.5,55.3333 131.5,55.3333 135.5,56C 136.381,56.7083 137.047,57.5416 137.5,58.5 Z"/></g>
<g><path style="opacity:0.903" fill="#313132" d="M 41.5,61.5 C 57.8367,61.3334 74.1701,61.5001 90.5,62C 90.9574,62.414 91.2907,62.914 91.5,63.5C 88.1279,67.742 85.1279,72.242 82.5,77C 76.5,77.3333 70.5,77.6667 64.5,78C 69.8333,78.3333 75.1667,78.6667 80.5,79C 81.1081,81.1841 80.4414,83.1841 78.5,85C 69.1667,85.6667 59.8333,85.6667 50.5,85C 48.3675,82.4532 45.5341,81.2865 42,81.5C 37.4424,82.1198 32.9424,82.6198 28.5,83C 24.5,79.3333 24.5,75.6667 28.5,72C 35.9828,73.361 43.6494,73.6943 51.5,73C 47.5598,71.1135 44.0598,68.6135 41,65.5C 40.4209,64.0715 40.5876,62.7382 41.5,61.5 Z"/></g>
<g><path style="opacity:0.986" fill="#747477" d="M 544.5,83.5 C 545.234,84.7079 545.567,86.0413 545.5,87.5C 545.666,95.84 545.5,104.173 545,112.5C 537.164,117.419 529.164,122.086 521,126.5C 512.9,122.113 504.9,117.446 497,112.5C 496.333,102.833 496.333,93.1667 497,83.5C 504.852,78.5742 512.852,73.9075 521,69.5C 528.993,74.014 536.827,78.6807 544.5,83.5 Z M 517.5,87.5 C 525.8,86.4584 530.467,89.9584 531.5,98C 531.379,104.788 527.879,108.288 521,108.5C 511.967,107.456 508.634,102.456 511,93.5C 512.494,90.6865 514.66,88.6865 517.5,87.5 Z"/></g>
<g><path style="opacity:0.804" fill="#000000" d="M 389.5,72.5 C 401.87,70.5857 411.204,74.919 417.5,85.5C 414.231,88.1422 410.565,90.3089 406.5,92C 410.421,92.203 414.255,92.703 418,93.5C 423.012,108.551 418.179,118.384 403.5,123C 387.488,125.745 375.988,119.912 369,105.5C 366.707,88.7413 373.54,77.7413 389.5,72.5 Z M 394.5,107.5 C 388.489,107.372 385.489,104.205 385.5,98C 386.294,91.8722 389.794,88.3722 396,87.5C 398.898,88.3646 401.398,89.8646 403.5,92C 399.911,92.2069 396.411,92.7069 393,93.5C 391.966,98.4569 392.466,103.124 394.5,107.5 Z"/></g>
<g><path style="opacity:0.81" fill="#010101" d="M 632.5,72.5 C 644.423,71.4567 653.09,76.1234 658.5,86.5C 658.392,87.4419 658.059,88.2753 657.5,89C 653.619,91.1072 649.619,92.9405 645.5,94.5C 643.937,93.0552 642.604,91.3885 641.5,89.5C 629.273,86.6243 624.606,91.291 627.5,103.5C 632.833,104.833 638.167,104.833 643.5,103.5C 643.833,102.5 644.5,101.833 645.5,101.5C 649.787,103.297 653.954,105.297 658,107.5C 656.329,115.839 651.162,121.006 642.5,123C 619.43,124.928 608.597,114.428 610,91.5C 611.907,85.5217 615.407,80.6883 620.5,77C 624.432,74.9716 628.432,73.4716 632.5,72.5 Z M 629.5,106.5 C 633.646,105.353 637.98,105.186 642.5,106C 638.3,107.789 633.967,107.956 629.5,106.5 Z"/></g>
<g><path style="opacity:0.769" fill="#020202" d="M 686.5,72.5 C 691.844,72.334 697.177,72.5006 702.5,73C 711.422,74.8963 715.089,80.2297 713.5,89C 709.5,89.6667 705.5,89.6667 701.5,89C 700.62,87.6439 700.286,86.1439 700.5,84.5C 696.486,84.3345 692.486,84.5012 688.5,85C 687.39,87.7372 687.223,90.5706 688,93.5C 688.5,93 689,92.5 689.5,92C 694.5,91.3333 699.5,91.3333 704.5,92C 712.871,95.9087 716.037,102.409 714,111.5C 711.01,121.338 704.344,125.338 694,123.5C 680.456,124.995 673.623,118.995 673.5,105.5C 662.98,105.422 662.98,104.755 673.5,103.5C 673.295,95.786 673.795,88.1194 675,80.5C 678.195,76.6734 682.029,74.0067 686.5,72.5 Z M 687.5,103.5 C 691.833,104.167 696.167,104.833 700.5,105.5C 700.5,107.5 700.5,109.5 700.5,111.5C 696.167,111.5 691.833,111.5 687.5,111.5C 687.5,108.833 687.5,106.167 687.5,103.5 Z"/></g>
<g><path style="opacity:0.792" fill="#000000" d="M 278.5,73.5 C 290.171,73.3335 301.838,73.5001 313.5,74C 314.833,78.3333 314.833,82.6667 313.5,87C 306.842,87.4996 300.175,87.6663 293.5,87.5C 293.5,88.5 293.5,89.5 293.5,90.5C 300.422,90.1878 307.256,90.5212 314,91.5C 314.799,96.0868 314.632,100.587 313.5,105C 286.833,106 286.833,107 313.5,108C 314.635,112.748 314.802,117.581 314,122.5C 302.243,123.654 290.409,123.821 278.5,123C 278,122.5 277.5,122 277,121.5C 276.333,106.5 276.333,91.5 277,76.5C 278.039,75.7562 278.539,74.7562 278.5,73.5 Z"/></g>
<g><path style="opacity:0.815" fill="#000000" d="M 319.5,73.5 C 324.844,73.334 330.177,73.5006 335.5,74C 339.279,80.1117 343.445,85.9451 348,91.5C 348.19,85.5845 348.69,79.7512 349.5,74C 355.084,73.1944 360.584,73.3611 366,74.5C 366.667,90.1667 366.667,105.833 366,121.5C 365.5,122 365,122.5 364.5,123C 360.167,123.667 355.833,123.667 351.5,123C 345.966,116.098 340.799,108.932 336,101.5C 335.667,108.5 335.333,115.5 335,122.5C 329.667,123.833 324.333,123.833 319,122.5C 318.183,106.093 318.349,89.7593 319.5,73.5 Z"/></g>
<g><path style="opacity:0.788" fill="#000000" d="M 422.5,73.5 C 427.762,73.1953 432.928,73.5286 438,74.5C 438.824,90.7408 438.658,106.907 437.5,123C 432.833,123.667 428.167,123.667 423.5,123C 423,122.5 422.5,122 422,121.5C 421.183,105.426 421.35,89.4259 422.5,73.5 Z"/></g>
<g><path style="opacity:0.829" fill="#000000" d="M 444.5,73.5 C 449.844,73.334 455.177,73.5006 460.5,74C 465,80.5 469.5,87 474,93.5C 474.333,87.1667 474.667,80.8333 475,74.5C 480.333,73.1667 485.667,73.1667 491,74.5C 491.824,90.7408 491.658,106.907 490.5,123C 485.833,123.667 481.167,123.667 476.5,123C 470.966,116.098 465.799,108.932 461,101.5C 460.667,108.5 460.333,115.5 460,122.5C 454.667,123.833 449.333,123.833 444,122.5C 443.183,106.093 443.349,89.7593 444.5,73.5 Z"/></g>
<g><path style="opacity:0.796" fill="#000000" d="M 545.5,87.5 C 545.567,86.0413 545.234,84.7079 544.5,83.5C 545.201,80.4371 545.868,77.2704 546.5,74C 560.167,73.3333 573.833,73.3333 587.5,74C 588.632,78.4132 588.799,82.9132 588,87.5C 583.934,88.4637 579.767,88.797 575.5,88.5C 575.667,99.8382 575.5,111.172 575,122.5C 569.667,123.833 564.333,123.833 559,122.5C 558.5,111.172 558.333,99.8382 558.5,88.5C 554.069,88.7693 549.735,88.436 545.5,87.5 Z"/></g>
<g><path style="opacity:0.781" fill="#000000" d="M 590.5,73.5 C 596.093,73.1934 601.593,73.5268 607,74.5C 607.667,90.1667 607.667,105.833 607,121.5C 606.5,122 606,122.5 605.5,123C 600.581,123.802 595.748,123.635 591,122.5C 590.5,106.17 590.333,89.8367 590.5,73.5 Z"/></g>
<g><path style="opacity:0.956" fill="#373739" d="M 23.5,86.5 C 40.9921,87.4967 58.6588,87.8301 76.5,87.5C 76.7076,89.9201 76.3742,92.2534 75.5,94.5C 61.1821,95.4993 46.8488,95.8326 32.5,95.5C 32.5,94.5 32.5,93.5 32.5,92.5C 28.9581,92.1872 25.6248,92.5206 22.5,93.5C 17.2974,96.9879 13.9641,95.6545 12.5,89.5C 13.3036,84.2105 16.3036,82.3771 21.5,84C 22.3805,84.7083 23.0472,85.5416 23.5,86.5 Z"/></g>
<g><path style="opacity:0.992" fill="#616265" d="M 132.5,103.5 C 134.446,98.6042 135.113,93.2709 134.5,87.5C 134.811,86.5222 135.478,85.8555 136.5,85.5C 144.537,90.2434 147.703,97.2434 146,106.5C 144.738,109.757 142.738,112.423 140,114.5C 139.667,123.167 139.333,131.833 139,140.5C 134.718,149.437 128.718,150.77 121,144.5C 120.138,142.913 119.471,141.246 119,139.5C 118.667,131.167 118.333,122.833 118,114.5C 108.397,103.387 109.73,93.7202 122,85.5C 122.772,85.6448 123.439,85.9781 124,86.5C 124.333,91.8333 124.667,97.1667 125,102.5C 127.381,103.435 129.881,103.768 132.5,103.5 Z"/></g>
<g><path style="opacity:0.016" fill="#080808" d="M 134.5,87.5 C 135.113,93.2709 134.446,98.6042 132.5,103.5C 133.123,98.0651 133.79,92.7317 134.5,87.5 Z"/></g>
<g><path style="opacity:0.017" fill="#090909" d="M 95.5,89.5 C 95.5,90.5 95.5,91.5 95.5,92.5C 93.5,92.5 91.5,92.5 89.5,92.5C 91.6391,91.8419 93.6391,90.8419 95.5,89.5 Z"/></g>
<g><path style="opacity:0.615" fill="#1c1c1d" d="M 23.5,86.5 C 41.5031,86.3334 59.5031,86.5001 77.5,87C 78.6221,90.4175 78.2888,93.7509 76.5,97C 61.5,97.6667 46.5,97.6667 31.5,97C 30.6634,95.9887 30.33,94.8221 30.5,93.5C 27.8333,93.5 25.1667,93.5 22.5,93.5C 25.6248,92.5206 28.9581,92.1872 32.5,92.5C 32.5,93.5 32.5,94.5 32.5,95.5C 46.8488,95.8326 61.1821,95.4993 75.5,94.5C 76.3742,92.2534 76.7076,89.9201 76.5,87.5C 58.6588,87.8301 40.9921,87.4967 23.5,86.5 Z"/></g>
<g><path style="opacity:0.908" fill="#3f4041" d="M 172.5,93.5 C 173.117,93.6107 173.617,93.944 174,94.5C 174.667,98.8333 174.667,103.167 174,107.5C 171.436,109.077 168.603,110.077 165.5,110.5C 163.821,113.277 162.155,115.944 160.5,118.5C 161.247,115.207 161.58,112.041 161.5,109C 165.145,108.281 168.812,107.781 172.5,107.5C 172.5,102.833 172.5,98.1667 172.5,93.5 Z"/></g>
<g><path style="opacity:0.988" fill="#353537" d="M 162.5,141.5 C 189.188,142.158 215.521,141.491 241.5,139.5C 245.22,136.549 248.387,137.216 251,141.5C 251.95,146.076 250.117,149.076 245.5,150.5C 243.998,149.917 242.665,149.084 241.5,148C 233.147,147.168 224.813,147.335 216.5,148.5C 210.688,161.251 202.521,162.918 192,153.5C 189.5,157.333 186.333,160.5 182.5,163C 186.946,167.726 188.779,173.226 188,179.5C 183.439,183.866 178.272,187.366 172.5,190C 169.697,190.755 167.03,190.422 164.5,189C 161.458,185.731 158.791,182.231 156.5,178.5C 152.492,179.503 148.492,180.503 144.5,181.5C 147.272,194.375 142.272,200.375 129.5,199.5C 116.728,200.375 111.728,194.375 114.5,181.5C 110.508,180.503 106.508,179.503 102.5,178.5C 100.209,182.231 97.5421,185.731 94.5,189C 92.9656,189.923 91.299,190.423 89.5,190.5C 82.4736,188.313 76.3069,184.646 71,179.5C 70.2211,173.226 72.0544,167.726 76.5,163C 72.6667,160.5 69.5,157.333 67,153.5C 62.2737,157.946 56.7737,159.779 50.5,159C 46.1338,154.439 42.6338,149.272 40,143.5C 39.245,140.697 39.5783,138.03 41,135.5C 44.2689,132.458 47.7689,129.791 51.5,127.5C 50.085,123.591 49.085,119.591 48.5,115.5C 43.7027,115.879 39.036,115.379 34.5,114C 31.1558,112.106 29.8224,109.273 30.5,105.5C 24.4908,105.334 18.4908,105.501 12.5,106C 7.10939,110.04 3.44272,108.707 1.5,102C 2.31766,98.7546 4.31766,96.588 7.5,95.5C 9.00158,96.0831 10.3349,96.9164 11.5,98C 33.1667,98.3333 54.8333,98.6667 76.5,99C 78.9757,131.975 96.6424,149.809 129.5,152.5C 141.73,152.363 152.73,148.696 162.5,141.5 Z"/></g>
<g><path style="opacity:0.983" fill="#2f2f30" d="M 182.5,103.5 C 197.504,103.333 212.504,103.5 227.5,104C 228.337,105.011 228.67,106.178 228.5,107.5C 233.624,107.399 238.624,106.899 243.5,106C 246.29,108.21 247.123,111.044 246,114.5C 242.647,118.255 239.147,118.422 235.5,115C 217.5,114.667 199.5,114.333 181.5,114C 180.443,110.425 180.776,106.925 182.5,103.5 Z"/></g>
<g><path style="opacity:0.96" fill="#3b3c3d" d="M 86.5,108.5 C 90.1817,108.335 93.8484,108.501 97.5,109C 97.8273,111.685 97.8273,114.518 97.5,117.5C 96.4608,115.099 95.1274,112.765 93.5,110.5C 91.0177,109.933 88.6843,109.266 86.5,108.5 Z"/></g>
<g><path style="opacity:0.943" fill="#313132" d="M 180.5,115.5 C 189.839,115.334 199.173,115.5 208.5,116C 210.633,118.547 213.466,119.713 217,119.5C 220.725,119.619 224.225,118.952 227.5,117.5C 233.415,119.173 234.749,122.673 231.5,128C 228.761,129.893 226.095,129.893 223.5,128C 218.167,127.333 212.833,127.333 207.5,128C 211.44,129.886 214.94,132.386 218,135.5C 218.684,136.784 218.517,137.951 217.5,139C 201.167,139.667 184.833,139.667 168.5,139C 167.549,138.282 167.383,137.449 168,136.5C 171.204,132.593 174.038,128.426 176.5,124C 182.5,123.667 188.5,123.333 194.5,123C 189.167,122.667 183.833,122.333 178.5,122C 177.989,119.681 178.656,117.514 180.5,115.5 Z"/></g>
<g><path style="opacity:0.788" fill="#39393b" d="M 145.5,119.5 C 144.64,123.434 144.307,127.434 144.5,131.5C 146.099,131.232 147.432,131.566 148.5,132.5C 146.83,132.751 145.33,133.418 144,134.5C 143.667,134.167 143.333,133.833 143,133.5C 142.333,129.5 142.333,125.5 143,121.5C 143.708,120.619 144.542,119.953 145.5,119.5 Z"/></g>
<g><path style="opacity:0.004" fill="#090a0a" d="M 485.5,136.5 C 486.601,135.402 487.934,135.235 489.5,136C 488.207,136.49 486.873,136.657 485.5,136.5 Z"/></g>
<g><path style="opacity:0.918" fill="#79797c" d="M 532.5,140.5 C 529.833,140.5 527.167,140.5 524.5,140.5C 524.5,146.5 524.5,152.5 524.5,158.5C 523.167,159.833 521.833,159.833 520.5,158.5C 520.5,152.5 520.5,146.5 520.5,140.5C 517.833,140.5 515.167,140.5 512.5,140.5C 511.596,139.791 511.263,138.791 511.5,137.5C 518.564,137.312 525.564,136.646 532.5,135.5C 535.148,137.206 535.148,138.872 532.5,140.5 Z"/></g>
<g><path style="opacity:0.896" fill="#666668" d="M 385.5,150.5 C 383.5,150.5 381.5,150.5 379.5,150.5C 379.5,153.167 379.5,155.833 379.5,158.5C 378.116,159.801 376.616,159.801 375,158.5C 374.333,151.167 374.333,143.833 375,136.5C 380.416,135.361 385.916,135.194 391.5,136C 396.143,138.072 397.643,141.572 396,146.5C 394.647,147.685 393.48,149.019 392.5,150.5C 394.043,153.086 395.709,155.586 397.5,158C 396.07,159.44 394.403,159.774 392.5,159C 389.79,156.372 387.456,153.539 385.5,150.5 Z M 384.5,140.5 C 385.167,140.5 385.833,140.5 386.5,140.5C 387.568,141.434 388.901,141.768 390.5,141.5C 390.5,142.833 390.5,144.167 390.5,145.5C 387.167,145.5 383.833,145.5 380.5,145.5C 380.5,144.167 380.5,142.833 380.5,141.5C 382.099,141.768 383.432,141.434 384.5,140.5 Z"/></g>
<g><path style="opacity:0.885" fill="#69686b" d="M 445.5,135.5 C 450.844,135.334 456.177,135.501 461.5,136C 466.568,138.609 467.568,142.276 464.5,147C 467.561,151.569 466.894,155.569 462.5,159C 456.584,159.807 450.75,159.641 445,158.5C 444.202,150.754 444.369,143.087 445.5,135.5 Z M 454.5,140.5 C 455.167,140.5 455.833,140.5 456.5,140.5C 457.568,141.434 458.901,141.768 460.5,141.5C 460.5,142.5 460.5,143.5 460.5,144.5C 457.167,144.5 453.833,144.5 450.5,144.5C 450.5,143.5 450.5,142.5 450.5,141.5C 452.099,141.768 453.432,141.434 454.5,140.5 Z M 452.5,149.5 C 456.122,148.924 459.122,149.924 461.5,152.5C 459.067,154.054 456.4,154.72 453.5,154.5C 452.791,153.596 451.791,153.263 450.5,153.5C 450.527,151.801 451.194,150.467 452.5,149.5 Z"/></g>
<g><path style="opacity:0.938" fill="#5e5e60" d="M 415.5,135.5 C 428.873,134.371 434.373,140.371 432,153.5C 426.175,160.07 419.342,161.237 411.5,157C 404.348,148.281 405.682,141.115 415.5,135.5 Z M 419.5,140.5 C 426.924,142.009 428.924,146.176 425.5,153C 419.117,155.712 414.783,153.879 412.5,147.5C 413.252,143.414 415.585,141.081 419.5,140.5 Z"/></g>
<g><path style="opacity:0.961" fill="#59595c" d="M 545.5,135.5 C 547.144,135.286 548.644,135.62 550,136.5C 550.667,143.833 550.667,151.167 550,158.5C 548.333,159.833 546.667,159.833 545,158.5C 544.202,150.754 544.369,143.087 545.5,135.5 Z"/></g>
<g><path style="opacity:0.95" fill="#5c5d5f" d="M 580.5,136.5 C 580.539,137.583 580.873,138.583 581.5,139.5C 579.604,140.466 577.604,140.799 575.5,140.5C 567.528,141.613 565.528,145.779 569.5,153C 570.873,153.875 572.373,154.375 574,154.5C 576.877,153.733 579.71,153.233 582.5,153C 585.167,154.667 585.167,156.333 582.5,158C 571.326,162.414 564.326,158.914 561.5,147.5C 563.722,136.886 570.055,133.219 580.5,136.5 Z"/></g>
<g><path style="opacity:0.267" fill="#363637" d="M 580.5,136.5 C 583.799,137.901 584.132,139.735 581.5,142C 579.316,142.121 577.316,141.621 575.5,140.5C 577.604,140.799 579.604,140.466 581.5,139.5C 580.873,138.583 580.539,137.583 580.5,136.5 Z"/></g>
<g><path style="opacity:0.062" fill="#050505" d="M 241.5,139.5 C 215.521,141.491 189.188,142.158 162.5,141.5C 188.736,140.825 215.069,140.158 241.5,139.5 Z"/></g>
<g><path style="opacity:0.013" fill="#0c0c0d" d="M 386.5,140.5 C 388.167,140.5 389.833,140.5 391.5,140.5C 391.784,142.415 391.451,144.081 390.5,145.5C 390.5,144.167 390.5,142.833 390.5,141.5C 388.901,141.768 387.568,141.434 386.5,140.5 Z"/></g>
<g><path style="opacity:0.027" fill="#0d0d0d" d="M 456.5,140.5 C 458.167,140.5 459.833,140.5 461.5,140.5C 461.768,142.099 461.434,143.432 460.5,144.5C 460.5,143.5 460.5,142.5 460.5,141.5C 458.901,141.768 457.568,141.434 456.5,140.5 Z"/></g>
<g><path style="opacity:0.008" fill="#0a090a" d="M 512.5,140.5 C 515.167,140.5 517.833,140.5 520.5,140.5C 520.5,146.5 520.5,152.5 520.5,158.5C 519.511,153.025 519.178,147.358 519.5,141.5C 516.941,141.802 514.607,141.468 512.5,140.5 Z"/></g>
<g><path style="opacity:0.061" fill="#0b0b0b" d="M 532.5,140.5 C 530.393,141.468 528.059,141.802 525.5,141.5C 525.822,147.358 525.489,153.025 524.5,158.5C 524.5,152.5 524.5,146.5 524.5,140.5C 527.167,140.5 529.833,140.5 532.5,140.5 Z"/></g>
<g><path style="opacity:0.933" fill="#616264" d="M 481.5,137.5 C 487.176,137.334 492.843,137.501 498.5,138C 502.776,142.892 503.61,148.392 501,154.5C 493.596,161.112 486.262,161.112 479,154.5C 475.277,148.173 476.11,142.506 481.5,137.5 Z M 489.5,140.5 C 496.105,141.328 498.272,144.994 496,151.5C 492.449,154.959 488.616,155.293 484.5,152.5C 481.225,146.388 482.892,142.388 489.5,140.5 Z"/></g>
<g><path style="opacity:0.023" fill="#0b0b0b" d="M 454.5,140.5 C 453.432,141.434 452.099,141.768 450.5,141.5C 450.5,142.5 450.5,143.5 450.5,144.5C 453.833,144.5 457.167,144.5 460.5,144.5C 457.038,145.482 453.371,145.815 449.5,145.5C 449.5,143.833 449.5,142.167 449.5,140.5C 451.167,140.5 452.833,140.5 454.5,140.5 Z"/></g>
<g><path style="opacity:0.033" fill="#0b0b0b" d="M 384.5,140.5 C 383.432,141.434 382.099,141.768 380.5,141.5C 380.5,142.833 380.5,144.167 380.5,145.5C 383.833,145.5 387.167,145.5 390.5,145.5C 387.038,146.482 383.371,146.815 379.5,146.5C 379.5,144.5 379.5,142.5 379.5,140.5C 381.167,140.5 382.833,140.5 384.5,140.5 Z"/></g>
<g><path style="opacity:0.007" fill="#0b0a0b" d="M 385.5,150.5 C 384.081,151.451 382.415,151.784 380.5,151.5C 380.802,154.059 380.468,156.393 379.5,158.5C 379.5,155.833 379.5,153.167 379.5,150.5C 381.5,150.5 383.5,150.5 385.5,150.5 Z"/></g>
<g><path style="opacity:0.004" fill="#0b0b0c" d="M 452.5,149.5 C 451.194,150.467 450.527,151.801 450.5,153.5C 451.791,153.263 452.791,153.596 453.5,154.5C 452.167,154.5 450.833,154.5 449.5,154.5C 449.5,152.833 449.5,151.167 449.5,149.5C 450.5,149.5 451.5,149.5 452.5,149.5 Z"/></g>
<g><path style="opacity:0.974" fill="#5f5f62" d="M 600.5,135.5 C 604.182,135.335 607.848,135.501 611.5,136C 614.789,137.959 615.123,140.125 612.5,142.5C 608.389,140.43 604.389,140.43 600.5,142.5C 604.236,144.353 608.236,145.519 612.5,146C 617.914,150.576 617.581,154.909 611.5,159C 605.621,160.223 600.121,159.389 595,156.5C 594.278,154.339 594.945,152.672 597,151.5C 601.259,154.959 605.759,155.292 610.5,152.5C 607.072,150.775 603.405,149.608 599.5,149C 595.335,147.517 593.835,144.684 595,140.5C 596.812,138.7 598.645,137.033 600.5,135.5 Z"/></g>
</svg>
