<svg version="1.1" id="Layer_1" xmlns="http://www.w3.org/2000/svg" xmlns:xlink="http://www.w3.org/1999/xlink" x="0px" y="0px"
	 width="100%" viewBox="0 0 257 204" enable-background="new 0 0 257 204" xml:space="preserve">
<path fill="#000000" opacity="1.000000" stroke="none" 
	d="
M1.000000,102.000000 
	C1.000000,68.349365 1.000000,34.698738 1.000000,1.024053 
	C86.609825,1.024053 172.219666,1.024053 257.914734,1.024053 
	C257.914734,68.910675 257.914734,136.821503 257.914734,204.866150 
	C172.333466,204.866150 86.666763,204.866150 1.000000,204.866150 
	C1.000000,171.905991 1.000000,138.921661 1.345670,105.515862 
	C4.216925,106.256737 7.829153,109.101570 9.081629,108.292664 
	C14.767390,104.620544 20.762968,106.438812 26.593027,106.133827 
	C27.938147,106.063461 30.442730,107.168930 30.566141,108.005775 
	C31.699762,115.692894 36.953934,116.341911 43.107761,116.063850 
	C44.825146,115.986252 47.745617,116.255951 48.113388,117.170715 
	C49.645344,120.981216 51.086987,125.091904 51.126827,129.106720 
	C51.142464,130.682480 47.513214,132.487610 45.333920,133.853210 
	C40.193218,137.074478 38.754463,141.165970 41.308762,146.557709 
	C42.728947,149.555527 44.260914,152.513214 45.942101,155.371582 
	C48.490768,159.704849 54.056084,161.899826 57.923866,159.094727 
	C64.069397,154.637634 68.783684,154.668564 72.969421,161.261963 
	C73.137352,161.526474 73.466301,161.704758 73.747742,161.878723 
	C76.070297,163.314407 76.215096,165.139526 74.862381,167.361465 
	C73.998703,168.780121 73.325226,170.313217 72.530945,171.775711 
	C69.470123,177.411545 70.985451,182.710022 76.524384,185.654556 
	C77.838318,186.353043 79.221443,186.935318 80.483131,187.715897 
	C89.270744,193.152695 93.366562,192.147141 98.504982,182.968918 
	C99.998230,180.301697 101.561386,179.162720 104.859077,179.884262 
	C114.646912,182.025909 114.679604,181.876450 115.025482,191.883621 
	C115.204559,197.064835 117.876434,199.800476 123.048225,199.964966 
	C125.878563,200.055008 128.713791,199.999939 131.546783,199.995941 
	C141.365540,199.982056 142.859009,198.474838 143.021759,188.790466 
	C143.054474,186.844162 142.952377,183.634079 143.918472,183.188644 
	C147.624573,181.479874 151.700302,180.092896 155.724289,179.809555 
	C157.165237,179.708115 159.160477,182.886078 160.366104,184.890091 
	C164.105576,191.105865 168.007828,192.403748 174.515823,189.173416 
	C177.042374,187.919342 179.585312,186.685532 182.034317,185.290680 
	C187.031067,182.444763 188.408005,177.228149 185.647247,172.053314 
	C184.707352,170.291580 183.609436,168.579971 182.950195,166.715851 
	C182.573364,165.650284 182.474579,164.025375 183.035172,163.161346 
	C188.080887,155.384293 191.245407,154.595856 199.291626,158.805862 
	C204.028442,161.284302 209.803375,160.328217 211.725464,155.562775 
	C214.528732,148.612656 219.322647,147.194061 225.893280,147.980026 
	C231.096909,148.602478 236.445541,148.422485 241.522583,149.540115 
	C244.583191,150.213837 247.406006,151.021225 248.884567,148.038086 
	C249.664047,146.465485 249.141068,143.430573 248.031647,141.916519 
	C246.013855,139.162781 243.200455,139.404709 240.710800,142.179245 
	C240.402695,142.459076 240.234314,142.626862 239.600739,142.843872 
	C231.423279,142.860687 223.717255,142.834595 216.010757,142.477203 
	C216.009949,141.483231 216.009613,140.820557 216.229919,140.011169 
	C217.665726,136.041824 214.362595,135.241089 212.257904,133.709656 
	C210.403275,132.360199 208.420486,131.186859 206.494293,129.935760 
	C206.725525,129.167618 206.956757,128.399460 207.187988,127.631325 
	C212.769608,128.165848 218.342834,128.855011 223.936981,129.158630 
	C226.167984,129.279724 229.142517,129.271133 230.481461,127.978256 
	C231.558838,126.937943 231.542343,122.933945 230.459030,121.944664 
	C229.067047,120.673531 226.065247,120.626076 223.858337,120.892220 
	C218.261368,121.567207 212.482162,124.816833 207.775772,118.654640 
	C207.262070,117.982033 205.602295,118.018715 204.471970,118.010246 
	C197.491608,117.957970 190.510284,118.031487 183.530060,117.971054 
	C179.841980,117.939125 178.379059,119.550583 179.258408,123.675919 
	C183.939453,123.918205 188.660599,124.162567 193.381744,124.406929 
	C193.357498,124.945419 193.333252,125.483910 193.309006,126.022400 
	C188.893661,126.022400 184.467834,125.848267 180.068497,126.113571 
	C178.453049,126.210991 176.423401,126.932755 175.413254,128.092896 
	C172.929581,130.945435 170.845093,134.164917 168.803391,137.366486 
	C168.399231,138.000275 168.904633,139.214157 168.990677,140.491669 
	C168.990143,141.485153 168.989502,142.147476 168.569092,142.852112 
	C165.258041,143.830582 162.008789,144.208664 159.534821,145.795486 
	C145.809265,154.599167 130.858521,157.617645 115.324684,153.355347 
	C91.011810,146.684158 75.892754,126.428169 75.926788,100.893272 
	C75.911949,99.681396 75.934769,98.748314 75.991249,97.429558 
	C76.020073,94.311539 76.015221,91.579193 76.010300,88.514832 
	C76.011055,87.518723 76.011894,86.854637 76.350899,86.100021 
	C77.660423,84.492775 78.631790,82.976051 79.603149,81.459335 
	C79.260544,81.004005 78.917931,80.548668 78.575317,80.093338 
	C73.792740,80.093338 69.010155,80.093338 64.227577,80.093338 
	C64.195969,79.391495 64.164360,78.689651 64.132751,77.987808 
	C67.152992,77.987808 70.178978,78.103958 73.191826,77.954742 
	C76.134895,77.808998 80.255432,78.495117 81.759041,76.871391 
	C85.181061,73.175980 87.315498,68.288239 89.820076,63.552715 
	C89.343536,62.555580 89.020134,61.890778 89.091995,61.179703 
	C92.548523,60.154552 95.982155,59.763130 98.608612,58.098293 
	C112.252396,49.449871 127.064491,46.382938 142.490234,50.579079 
	C166.564377,57.127781 182.098099,77.252007 182.081467,103.070473 
	C182.093826,104.303719 182.070267,105.252876 182.009552,106.592384 
	C180.188538,114.453682 180.584274,114.985474 188.240433,114.996437 
	C201.528687,115.015472 214.819214,114.869453 228.103531,115.098244 
	C231.079788,115.149513 234.003738,116.660759 237.009689,117.124001 
	C239.002747,117.431160 241.401154,117.653511 243.043991,116.803802 
	C244.162415,116.225311 244.835373,113.697289 244.747650,112.093498 
	C244.542068,108.334663 241.273560,107.165619 236.711365,108.915398 
	C230.881439,111.151398 228.206863,110.394905 226.950958,105.777557 
	C226.975906,104.654442 226.991486,103.905762 227.473114,103.112801 
	C235.128540,103.611107 242.533127,101.355865 249.547302,105.136414 
	C250.595062,105.701134 253.709152,104.036606 254.700455,102.598846 
	C255.507431,101.428406 255.229462,98.426773 254.232346,97.374687 
	C253.034729,96.111023 249.791061,94.945610 248.774338,95.656250 
	C243.058395,99.651505 236.801468,97.529030 230.809158,97.822876 
	C229.620758,97.881149 227.453888,96.442871 227.266129,95.415459 
	C226.155151,89.336769 222.323425,87.720779 216.789185,87.955566 
	C214.529800,88.051422 210.821884,88.197845 210.229568,87.051697 
	C208.372864,83.458977 207.116806,79.300468 206.845291,75.278954 
	C206.746918,73.822090 209.893845,71.810966 211.894455,70.609909 
	C218.075455,66.899178 219.574814,62.201843 216.202667,55.924206 
	C214.948074,53.588638 213.667511,51.265308 212.332916,48.974789 
	C209.667191,44.399796 204.226379,42.027084 200.029617,44.938362 
	C193.566681,49.421711 188.852341,48.756474 184.630600,42.374538 
	C184.546356,42.247154 184.363174,42.181137 184.219666,42.097641 
	C181.801788,40.690884 181.784470,38.844536 183.120682,36.642403 
	C183.982269,35.222466 184.670837,33.698574 185.464996,32.236507 
	C188.339691,26.944155 187.232254,21.994440 182.266129,18.884369 
	C179.462662,17.128687 176.538956,15.534681 173.557587,14.100234 
	C168.599808,11.714853 164.331818,12.992699 161.302460,17.623098 
	C160.484665,18.873108 160.145340,20.639198 159.053650,21.458963 
	C157.449860,22.663279 155.422363,23.695522 153.471756,23.926657 
	C151.791199,24.125793 149.991318,22.850851 148.199402,22.668888 
	C143.631989,22.205086 142.739075,19.514435 142.885101,15.454309 
	C142.982300,12.751748 142.860962,9.543379 141.515091,7.386548 
	C138.336655,2.292970 120.020561,2.394431 116.439941,7.268291 
	C115.622749,8.380642 115.239479,9.968643 115.094719,11.382589 
	C114.858139,13.693437 115.105408,16.052277 114.897125,18.368261 
	C114.802185,19.423937 114.333717,21.111113 113.646980,21.337904 
	C109.877541,22.582745 105.957504,24.263922 102.153038,24.118986 
	C100.357552,24.050589 98.505539,20.370455 97.027412,18.100073 
	C93.677391,12.954485 89.524796,11.550327 84.108788,14.211241 
	C81.286102,15.598038 78.525101,17.136696 75.848236,18.788290 
	C70.880852,21.853107 69.664299,26.909822 72.449219,32.114395 
	C73.757271,34.558941 74.983116,37.047474 75.962166,38.960926 
	C72.501595,42.649639 69.550278,45.795517 66.447731,49.102600 
	C64.552895,48.196125 62.748131,47.399719 61.004189,46.487091 
	C52.539810,42.057583 49.419342,43.108906 44.536903,51.364380 
	C43.410549,53.268879 40.972008,55.743141 39.203190,55.691658 
	C31.025301,55.453640 22.615932,57.911049 14.641167,53.995583 
	C13.573480,53.471359 11.018145,53.789433 10.617031,54.520939 
	C9.572041,56.426697 8.267885,59.277191 8.999652,60.853970 
	C10.759615,64.646263 14.001420,64.741348 17.295580,61.821632 
	C17.602262,61.539764 17.769806,61.370941 18.348570,61.160751 
	C26.609587,61.159042 34.453094,61.192467 42.123985,61.560905 
	C41.629372,62.564106 41.307381,63.232285 40.959454,64.271500 
	C44.299587,68.071541 47.665657,71.500542 51.031731,74.929550 
	C50.908348,75.448006 50.784969,75.966469 50.661587,76.484924 
	C45.084938,75.883423 39.518982,75.100998 33.926315,74.770370 
	C31.720676,74.639984 28.744205,74.822334 27.442430,76.155144 
	C26.400761,77.221649 26.585703,81.491798 27.604177,82.125496 
	C29.429960,83.261513 32.523785,83.455811 34.677460,82.764969 
	C41.391861,80.611122 48.129486,81.808800 50.183315,86.445007 
	C50.658745,87.442566 50.981544,88.107674 50.826080,88.812614 
	C48.019112,88.862816 45.675678,89.047363 43.364376,88.851913 
	C35.422386,88.180359 27.209774,90.946106 19.513039,86.376884 
	C17.191349,84.998581 13.712772,86.163719 13.437858,89.480293 
	C13.274188,91.454819 14.690143,94.059158 16.226347,95.486778 
	C17.133585,96.329880 19.661667,95.430168 21.460705,95.312042 
	C24.985308,95.080627 28.847000,93.707947 30.993931,98.471710 
	C30.993631,99.489021 30.993212,100.167229 30.526791,100.889908 
	C24.278885,100.842468 17.988625,102.140358 12.859365,100.264191 
	C7.822978,98.421997 4.626283,99.118378 1.000000,102.000000 
M141.948059,69.446022 
	C138.505280,68.397636 136.230408,66.768967 136.890137,62.463493 
	C137.325760,59.620628 135.730484,57.747551 132.442322,57.978718 
	C130.785812,58.095177 129.094193,58.161140 127.453110,57.962971 
	C122.758568,57.396076 120.549843,59.243000 120.950859,64.085205 
	C121.043106,65.199066 121.037643,67.015572 120.418869,67.374779 
	C117.583916,69.020485 114.615372,70.648918 111.481636,71.463753 
	C110.203522,71.796082 108.124184,70.339592 106.860146,69.197884 
	C102.595879,65.346336 100.146370,68.616524 97.286316,71.207184 
	C94.307549,73.905380 92.089928,76.576103 95.788773,80.238762 
	C98.626846,83.049049 98.114182,85.944130 96.369286,89.034813 
	C95.509178,90.558304 94.847076,92.193573 94.119293,93.727844 
	C84.967766,94.477432 84.967712,94.477432 84.992989,103.427872 
	C84.995338,104.260269 85.037964,105.094704 84.994804,105.924698 
	C84.859528,108.526566 85.845978,109.749008 88.665482,110.075035 
	C96.641266,110.997299 99.728951,118.826866 95.132240,125.509155 
	C94.357330,126.635658 94.100067,129.368362 94.832436,130.062546 
	C97.809242,132.884186 101.262482,135.203781 104.567673,137.671494 
	C104.610306,137.703308 104.978638,137.182175 105.256256,137.033936 
	C108.198669,135.462708 111.153526,133.914810 114.887383,131.948441 
	C115.609108,127.410576 115.165619,122.552399 109.890266,118.009949 
	C103.114471,112.175529 102.314987,100.573891 105.942307,92.704956 
	C111.307793,81.065315 119.537743,76.843384 132.488205,77.952911 
	C142.748718,78.831978 149.397827,84.741356 152.537155,93.765945 
	C155.654877,102.728485 154.925537,112.137451 147.305618,118.924606 
	C142.149368,123.517365 142.797577,128.496216 143.318192,134.107574 
	C145.563599,133.621628 148.580093,134.606995 155.941284,138.113510 
	C157.875565,136.011307 159.850464,133.525116 162.176575,131.428589 
	C164.712433,129.142975 164.667755,127.399269 162.438263,124.793114 
	C158.194229,119.832047 161.764297,110.544800 168.172150,110.173294 
	C172.337814,109.931770 173.349167,108.190323 173.027832,104.588432 
	C172.895218,103.101891 172.862610,101.577316 173.032379,100.098495 
	C173.504288,95.987900 171.305984,94.355476 167.623093,94.011635 
	C166.318512,93.889839 165.006958,93.842590 163.885788,93.772942 
	C163.000061,91.926971 162.286819,90.307106 161.460541,88.747116 
	C159.898987,85.798988 159.362350,83.057396 162.090530,80.351166 
	C165.275360,77.191948 164.359375,74.554985 161.217270,71.640762 
	C155.545685,66.380478 155.702057,66.205757 149.190231,70.421913 
	C148.507355,70.864052 147.872452,71.380302 147.295486,71.803360 
	C145.617538,71.089584 144.119431,70.452301 141.948059,69.446022 
M117.178154,90.621765 
	C111.093491,99.065712 109.849686,105.257278 114.913155,111.287224 
	C118.923820,116.063423 119.137207,120.998230 119.014076,126.465401 
	C118.927856,130.293671 118.956856,134.126022 119.007507,137.955566 
	C119.098663,144.847015 122.942833,149.060944 129.023666,149.011917 
	C134.372314,148.968796 137.903122,144.719940 137.978699,138.077255 
	C138.045013,132.249405 137.817184,126.411690 138.097305,120.596550 
	C138.187607,118.721840 139.080673,116.571907 140.293686,115.123306 
	C144.124588,110.548386 146.071243,105.483566 144.936005,99.592438 
	C144.008636,94.780006 141.155167,89.197777 134.004028,88.412209 
	C134.004028,92.395599 133.782059,96.314003 134.065140,100.195572 
	C134.360596,104.246643 132.843048,105.928253 128.760254,106.000641 
	C124.374283,106.078415 122.796043,104.107956 122.982422,99.935349 
	C123.155800,96.053619 123.019432,92.158051 123.019432,87.209961 
	C120.492912,88.605888 119.118141,89.365463 117.178154,90.621765 
z"/>
<path fill="#39393B" opacity="1.000000" stroke="none" 
	d="
M75.964439,101.172073 
	C75.892754,126.428169 91.011810,146.684158 115.324684,153.355347 
	C130.858521,157.617645 145.809265,154.599167 159.534821,145.795486 
	C162.008789,144.208664 165.258041,143.830582 169.036530,142.899887 
	C185.286209,142.873062 200.648727,142.840775 216.011246,142.808502 
	C223.717255,142.834595 231.423279,142.860687 239.778107,142.780090 
	C240.648773,142.525635 240.787888,142.321472 240.844284,142.060928 
	C243.200455,139.404709 246.013855,139.162781 248.031647,141.916519 
	C249.141068,143.430573 249.664047,146.465485 248.884567,148.038086 
	C247.406006,151.021225 244.583191,150.213837 241.522583,149.540115 
	C236.445541,148.422485 231.096909,148.602478 225.893280,147.980026 
	C219.322647,147.194061 214.528732,148.612656 211.725464,155.562775 
	C209.803375,160.328217 204.028442,161.284302 199.291626,158.805862 
	C191.245407,154.595856 188.080887,155.384293 183.035172,163.161346 
	C182.474579,164.025375 182.573364,165.650284 182.950195,166.715851 
	C183.609436,168.579971 184.707352,170.291580 185.647247,172.053314 
	C188.408005,177.228149 187.031067,182.444763 182.034317,185.290680 
	C179.585312,186.685532 177.042374,187.919342 174.515823,189.173416 
	C168.007828,192.403748 164.105576,191.105865 160.366104,184.890091 
	C159.160477,182.886078 157.165237,179.708115 155.724289,179.809555 
	C151.700302,180.092896 147.624573,181.479874 143.918472,183.188644 
	C142.952377,183.634079 143.054474,186.844162 143.021759,188.790466 
	C142.859009,198.474838 141.365540,199.982056 131.546783,199.995941 
	C128.713791,199.999939 125.878563,200.055008 123.048225,199.964966 
	C117.876434,199.800476 115.204559,197.064835 115.025482,191.883621 
	C114.679604,181.876450 114.646912,182.025909 104.859077,179.884262 
	C101.561386,179.162720 99.998230,180.301697 98.504982,182.968918 
	C93.366562,192.147141 89.270744,193.152695 80.483131,187.715897 
	C79.221443,186.935318 77.838318,186.353043 76.524384,185.654556 
	C70.985451,182.710022 69.470123,177.411545 72.530945,171.775711 
	C73.325226,170.313217 73.998703,168.780121 74.862381,167.361465 
	C76.215096,165.139526 76.070297,163.314407 73.747742,161.878723 
	C73.466301,161.704758 73.137352,161.526474 72.969421,161.261963 
	C68.783684,154.668564 64.069397,154.637634 57.923866,159.094727 
	C54.056084,161.899826 48.490768,159.704849 45.942101,155.371582 
	C44.260914,152.513214 42.728947,149.555527 41.308762,146.557709 
	C38.754463,141.165970 40.193218,137.074478 45.333920,133.853210 
	C47.513214,132.487610 51.142464,130.682480 51.126827,129.106720 
	C51.086987,125.091904 49.645344,120.981216 48.113388,117.170715 
	C47.745617,116.255951 44.825146,115.986252 43.107761,116.063850 
	C36.953934,116.341911 31.699762,115.692894 30.566141,108.005775 
	C30.442730,107.168930 27.938147,106.063461 26.593027,106.133827 
	C20.762968,106.438812 14.767390,104.620544 9.081629,108.292664 
	C7.829153,109.101570 4.216925,106.256737 1.345670,105.047203 
	C1.000000,104.250000 1.000000,103.500000 1.000000,102.375000 
	C4.626283,99.118378 7.822978,98.421997 12.859365,100.264191 
	C17.988625,102.140358 24.278885,100.842468 30.993961,100.937546 
	C46.606232,101.017845 61.285336,101.094955 75.964439,101.172073 
z"/>
<path fill="#39393B" opacity="1.000000" stroke="none" 
	d="
M17.162729,61.940918 
	C14.001420,64.741348 10.759615,64.646263 8.999652,60.853970 
	C8.267885,59.277191 9.572041,56.426697 10.617031,54.520939 
	C11.018145,53.789433 13.573480,53.471359 14.641167,53.995583 
	C22.615932,57.911049 31.025301,55.453640 39.203190,55.691658 
	C40.972008,55.743141 43.410549,53.268879 44.536903,51.364380 
	C49.419342,43.108906 52.539810,42.057583 61.004189,46.487091 
	C62.748131,47.399719 64.552895,48.196125 66.447731,49.102600 
	C69.550278,45.795517 72.501595,42.649639 75.962166,38.960926 
	C74.983116,37.047474 73.757271,34.558941 72.449219,32.114395 
	C69.664299,26.909822 70.880852,21.853107 75.848236,18.788290 
	C78.525101,17.136696 81.286102,15.598038 84.108788,14.211241 
	C89.524796,11.550327 93.677391,12.954485 97.027412,18.100073 
	C98.505539,20.370455 100.357552,24.050589 102.153038,24.118986 
	C105.957504,24.263922 109.877541,22.582745 113.646980,21.337904 
	C114.333717,21.111113 114.802185,19.423937 114.897125,18.368261 
	C115.105408,16.052277 114.858139,13.693437 115.094719,11.382589 
	C115.239479,9.968643 115.622749,8.380642 116.439941,7.268291 
	C120.020561,2.394431 138.336655,2.292970 141.515091,7.386548 
	C142.860962,9.543379 142.982300,12.751748 142.885101,15.454309 
	C142.739075,19.514435 143.631989,22.205086 148.199402,22.668888 
	C149.991318,22.850851 151.791199,24.125793 153.471756,23.926657 
	C155.422363,23.695522 157.449860,22.663279 159.053650,21.458963 
	C160.145340,20.639198 160.484665,18.873108 161.302460,17.623098 
	C164.331818,12.992699 168.599808,11.714853 173.557587,14.100234 
	C176.538956,15.534681 179.462662,17.128687 182.266129,18.884369 
	C187.232254,21.994440 188.339691,26.944155 185.464996,32.236507 
	C184.670837,33.698574 183.982269,35.222466 183.120682,36.642403 
	C181.784470,38.844536 181.801788,40.690884 184.219666,42.097641 
	C184.363174,42.181137 184.546356,42.247154 184.630600,42.374538 
	C188.852341,48.756474 193.566681,49.421711 200.029617,44.938362 
	C204.226379,42.027084 209.667191,44.399796 212.332916,48.974789 
	C213.667511,51.265308 214.948074,53.588638 216.202667,55.924206 
	C219.574814,62.201843 218.075455,66.899178 211.894455,70.609909 
	C209.893845,71.810966 206.746918,73.822090 206.845291,75.278954 
	C207.116806,79.300468 208.372864,83.458977 210.229568,87.051697 
	C210.821884,88.197845 214.529800,88.051422 216.789185,87.955566 
	C222.323425,87.720779 226.155151,89.336769 227.266129,95.415459 
	C227.453888,96.442871 229.620758,97.881149 230.809158,97.822876 
	C236.801468,97.529030 243.058395,99.651505 248.774338,95.656250 
	C249.791061,94.945610 253.034729,96.111023 254.232346,97.374687 
	C255.229462,98.426773 255.507431,101.428406 254.700455,102.598846 
	C253.709152,104.036606 250.595062,105.701134 249.547302,105.136414 
	C242.533127,101.355865 235.128540,103.611107 227.005951,103.065353 
	C211.397018,102.970253 196.721283,102.878326 182.045547,102.786392 
	C182.098099,77.252007 166.564377,57.127781 142.490234,50.579079 
	C127.064491,46.382938 112.252396,49.449871 98.608612,58.098293 
	C95.982155,59.763130 92.548523,60.154552 88.724075,61.126183 
	C72.739464,61.154587 57.518036,61.190235 42.296604,61.225887 
	C34.453094,61.192467 26.609587,61.159042 18.170811,61.224815 
	C17.351931,61.472065 17.214325,61.677704 17.162729,61.940918 
z"/>
<path fill="#6B6B6F" opacity="1.000000" stroke="none" 
	d="
M142.284698,69.630524 
	C144.119431,70.452301 145.617538,71.089584 147.295486,71.803360 
	C147.872452,71.380302 148.507355,70.864052 149.190231,70.421913 
	C155.702057,66.205757 155.545685,66.380478 161.217270,71.640762 
	C164.359375,74.554985 165.275360,77.191948 162.090530,80.351166 
	C159.362350,83.057396 159.898987,85.798988 161.460541,88.747116 
	C162.286819,90.307106 163.000061,91.926971 163.885788,93.772942 
	C165.006958,93.842590 166.318512,93.889839 167.623093,94.011635 
	C171.305984,94.355476 173.504288,95.987900 173.032379,100.098495 
	C172.862610,101.577316 172.895218,103.101891 173.027832,104.588432 
	C173.349167,108.190323 172.337814,109.931770 168.172150,110.173294 
	C161.764297,110.544800 158.194229,119.832047 162.438263,124.793114 
	C164.667755,127.399269 164.712433,129.142975 162.176575,131.428589 
	C159.850464,133.525116 157.875565,136.011307 155.941284,138.113510 
	C148.580093,134.606995 145.563599,133.621628 143.318192,134.107574 
	C142.797577,128.496216 142.149368,123.517365 147.305618,118.924606 
	C154.925537,112.137451 155.654877,102.728485 152.537155,93.765945 
	C149.397827,84.741356 142.748718,78.831978 132.488205,77.952911 
	C119.537743,76.843384 111.307793,81.065315 105.942307,92.704956 
	C102.314987,100.573891 103.114471,112.175529 109.890266,118.009949 
	C115.165619,122.552399 115.609108,127.410576 114.887383,131.948441 
	C111.153526,133.914810 108.198669,135.462708 105.256256,137.033936 
	C104.978638,137.182175 104.610306,137.703308 104.567673,137.671494 
	C101.262482,135.203781 97.809242,132.884186 94.832436,130.062546 
	C94.100067,129.368362 94.357330,126.635658 95.132240,125.509155 
	C99.728951,118.826866 96.641266,110.997299 88.665482,110.075035 
	C85.845978,109.749008 84.859528,108.526566 84.994804,105.924698 
	C85.037964,105.094704 84.995338,104.260269 84.992989,103.427872 
	C84.967712,94.477432 84.967766,94.477432 94.119293,93.727844 
	C94.847076,92.193573 95.509178,90.558304 96.369286,89.034813 
	C98.114182,85.944130 98.626846,83.049049 95.788773,80.238762 
	C92.089928,76.576103 94.307549,73.905380 97.286316,71.207184 
	C100.146370,68.616524 102.595879,65.346336 106.860146,69.197884 
	C108.124184,70.339592 110.203522,71.796082 111.481636,71.463753 
	C114.615372,70.648918 117.583916,69.020485 120.418869,67.374779 
	C121.037643,67.015572 121.043106,65.199066 120.950859,64.085205 
	C120.549843,59.243000 122.758568,57.396076 127.453110,57.962971 
	C129.094193,58.161140 130.785812,58.095177 132.442322,57.978718 
	C135.730484,57.747551 137.325760,59.620628 136.890137,62.463493 
	C136.230408,66.768967 138.505280,68.397636 142.284698,69.630524 
z"/>
<path fill="#6B6C6F" opacity="1.000000" stroke="none" 
	d="
M117.460762,90.373398 
	C119.118141,89.365463 120.492912,88.605888 123.019432,87.209961 
	C123.019432,92.158051 123.155800,96.053619 122.982422,99.935349 
	C122.796043,104.107956 124.374283,106.078415 128.760254,106.000641 
	C132.843048,105.928253 134.360596,104.246643 134.065140,100.195572 
	C133.782059,96.314003 134.004028,92.395599 134.004028,88.412209 
	C141.155167,89.197777 144.008636,94.780006 144.936005,99.592438 
	C146.071243,105.483566 144.124588,110.548386 140.293686,115.123306 
	C139.080673,116.571907 138.187607,118.721840 138.097305,120.596550 
	C137.817184,126.411690 138.045013,132.249405 137.978699,138.077255 
	C137.903122,144.719940 134.372314,148.968796 129.023666,149.011917 
	C122.942833,149.060944 119.098663,144.847015 119.007507,137.955566 
	C118.956856,134.126022 118.927856,130.293671 119.014076,126.465401 
	C119.137207,120.998230 118.923820,116.063423 114.913155,111.287224 
	C109.849686,105.257278 111.093491,99.065712 117.460762,90.373398 
z"/>
<path fill="#39393B" opacity="1.000000" stroke="none" 
	d="
M168.990570,140.160522 
	C168.904633,139.214157 168.399231,138.000275 168.803391,137.366486 
	C170.845093,134.164917 172.929581,130.945435 175.413254,128.092896 
	C176.423401,126.932755 178.453049,126.210991 180.068497,126.113571 
	C184.467834,125.848267 188.893661,126.022400 193.309006,126.022400 
	C193.333252,125.483910 193.357498,124.945419 193.381744,124.406929 
	C188.660599,124.162567 183.939453,123.918205 179.258408,123.675919 
	C178.379059,119.550583 179.841980,117.939125 183.530060,117.971054 
	C190.510284,118.031487 197.491608,117.957970 204.471970,118.010246 
	C205.602295,118.018715 207.262070,117.982033 207.775772,118.654640 
	C212.482162,124.816833 218.261368,121.567207 223.858337,120.892220 
	C226.065247,120.626076 229.067047,120.673531 230.459030,121.944664 
	C231.542343,122.933945 231.558838,126.937943 230.481461,127.978256 
	C229.142517,129.271133 226.167984,129.279724 223.936981,129.158630 
	C218.342834,128.855011 212.769608,128.165848 207.187988,127.631325 
	C206.956757,128.399460 206.725525,129.167618 206.494293,129.935760 
	C208.420486,131.186859 210.403275,132.360199 212.257904,133.709656 
	C214.362595,135.241089 217.665726,136.041824 215.762390,139.966721 
	C199.712997,140.099518 184.351776,140.130020 168.990570,140.160522 
z"/>
<path fill="#39393B" opacity="1.000000" stroke="none" 
	d="
M50.030685,86.112564 
	C48.129486,81.808800 41.391861,80.611122 34.677460,82.764969 
	C32.523785,83.455811 29.429960,83.261513 27.604177,82.125496 
	C26.585703,81.491798 26.400761,77.221649 27.442430,76.155144 
	C28.744205,74.822334 31.720676,74.639984 33.926315,74.770370 
	C39.518982,75.100998 45.084938,75.883423 50.661587,76.484924 
	C50.784969,75.966469 50.908348,75.448006 51.031731,74.929550 
	C47.665657,71.500542 44.299587,68.071541 41.428562,64.295349 
	C57.940140,63.927124 73.956673,63.906086 89.973206,63.885048 
	C87.315498,68.288239 85.181061,73.175980 81.759041,76.871391 
	C80.255432,78.495117 76.134895,77.808998 73.191826,77.954742 
	C70.178978,78.103958 67.152992,77.987808 64.132751,77.987808 
	C64.164360,78.689651 64.195969,79.391495 64.227577,80.093338 
	C69.010155,80.093338 73.792740,80.093338 78.575317,80.093338 
	C78.917931,80.548668 79.260544,81.004005 79.603149,81.459335 
	C78.631790,82.976051 77.660423,84.492775 75.883286,86.053391 
	C66.728577,86.102379 58.379631,86.107475 50.030685,86.112564 
z"/>
<path fill="#39393B" opacity="1.000000" stroke="none" 
	d="
M76.010376,88.846863 
	C76.015221,91.579193 76.020073,94.311539 75.526855,97.467804 
	C60.350460,97.972023 45.672138,98.052315 30.993813,98.132607 
	C28.847000,93.707947 24.985308,95.080627 21.460705,95.312042 
	C19.661667,95.430168 17.133585,96.329880 16.226347,95.486778 
	C14.690143,94.059158 13.274188,91.454819 13.437858,89.480293 
	C13.712772,86.163719 17.191349,84.998581 19.513039,86.376884 
	C27.209774,90.946106 35.422386,88.180359 43.364376,88.851913 
	C45.675678,89.047363 48.019112,88.862816 51.193863,88.866020 
	C60.030064,88.868683 68.020218,88.857773 76.010376,88.846863 
z"/>
<path fill="#38383A" opacity="1.000000" stroke="none" 
	d="
M226.941620,106.152000 
	C228.206863,110.394905 230.881439,111.151398 236.711365,108.915398 
	C241.273560,107.165619 244.542068,108.334663 244.747650,112.093498 
	C244.835373,113.697289 244.162415,116.225311 243.043991,116.803802 
	C241.401154,117.653511 239.002747,117.431160 237.009689,117.124001 
	C234.003738,116.660759 231.079788,115.149513 228.103531,115.098244 
	C214.819214,114.869453 201.528687,115.015472 188.240433,114.996437 
	C180.584274,114.985474 180.188538,114.453682 182.473404,106.550461 
	C197.630127,106.129463 212.285873,106.140732 226.941620,106.152000 
z"/>
<path fill="#030303" opacity="1.000000" stroke="none" 
	d="
M89.820076,63.552711 
	C73.956673,63.906086 57.940140,63.927124 41.454498,63.924313 
	C41.307381,63.232285 41.629372,62.564106 42.123985,61.560905 
	C57.518036,61.190235 72.739464,61.154587 88.328812,61.172455 
	C89.020134,61.890778 89.343536,62.555580 89.820076,63.552711 
z"/>
<path fill="#030303" opacity="1.000000" stroke="none" 
	d="
M168.990677,140.491669 
	C184.351776,140.130020 199.712997,140.099518 215.541748,140.113464 
	C216.009613,140.820557 216.009949,141.483231 216.010757,142.477203 
	C200.648727,142.840775 185.286209,142.873062 169.456268,142.857574 
	C168.989502,142.147476 168.990143,141.485153 168.990677,140.491669 
z"/>
<path fill="#020202" opacity="1.000000" stroke="none" 
	d="
M30.993931,98.471710 
	C45.672138,98.052315 60.350460,97.972023 75.493179,97.853485 
	C75.934769,98.748314 75.911949,99.681396 75.926788,100.893265 
	C61.285336,101.094955 46.606232,101.017845 31.459961,100.893082 
	C30.993212,100.167229 30.993631,99.489021 30.993931,98.471710 
z"/>
<path fill="#020202" opacity="1.000000" stroke="none" 
	d="
M226.950958,105.777557 
	C212.285873,106.140732 197.630127,106.129463 182.510529,106.160118 
	C182.070267,105.252876 182.093826,104.303719 182.081467,103.070480 
	C196.721283,102.878326 211.397018,102.970253 226.539917,103.109634 
	C226.991486,103.905762 226.975906,104.654442 226.950958,105.777557 
z"/>
<path fill="#030303" opacity="1.000000" stroke="none" 
	d="
M76.010300,88.514832 
	C68.020218,88.857773 60.030064,88.868683 51.672127,88.826187 
	C50.981544,88.107674 50.658745,87.442566 50.183315,86.445007 
	C58.379631,86.107475 66.728577,86.102379 75.545135,86.143921 
	C76.011894,86.854637 76.011055,87.518723 76.010300,88.514832 
z"/>
<path fill="#030303" opacity="1.000000" stroke="none" 
	d="
M240.710800,142.179245 
	C240.787888,142.321472 240.648773,142.525635 240.249557,142.737167 
	C240.234314,142.626862 240.402695,142.459076 240.710800,142.179245 
z"/>
<path fill="#030303" opacity="1.000000" stroke="none" 
	d="
M17.295580,61.821632 
	C17.214325,61.677704 17.351931,61.472065 17.753304,61.259945 
	C17.769806,61.370941 17.602262,61.539764 17.295580,61.821632 
z"/>
</svg>